<?xml version="1.0" encoding="utf-8"?>
<!-- Generator: Adobe Illustrator 16.0.0, SVG Export Plug-In . SVG Version: 6.00 Build 0)  -->
<!DOCTYPE svg PUBLIC "-//W3C//DTD SVG 1.1//EN" "http://www.w3.org/Graphics/SVG/1.1/DTD/svg11.dtd">
<svg version="1.1" id="Layer_1" xmlns="http://www.w3.org/2000/svg" xmlns:xlink="http://www.w3.org/1999/xlink" x="0px" y="0px"
	 width="52px" height="37px" viewBox="-0.5 0 52 37" enable-background="new -0.5 0 52 37" xml:space="preserve">
<rect x="-0.5" fill="none" width="52" height="37"/>
<g>
	<path fill="#42210B" d="M51.5,17.064c-2.848-0.186-3.927-0.456-5.89-0.598c2.503-1.447,3.479-1.865,5.663-3.373
		c-3.648-0.096-6.316-0.146-6.416-0.512C43.483,7.525,38.77,3.45,33.836,3.942c0.397-0.162,3.873-6.177-1.16-3.036
		c-3.957,2.532-6.269,7.63-8.138,12.58c-1.468-1.426-2.772-2.548-3.939-3.173c-3.275-1.755-7.193-3.591-13.341-5.875
		c-0.189,2.035,1.006,4.745,4.445,6.544c-0.745-0.101-2.107,0.125-3.195,0.383C8.95,13.7,10.4,15.622,14.329,16.55
		c-1.795,0.118-2.724,0.53-3.564,1.408c0.817,1.624,2.815,3.534,6.402,3.14c-3.992,1.724-1.628,4.912,1.619,4.437
		C13.249,31.264,4.515,30.838-0.5,26.051C12.592,43.91,41.055,36.611,45.295,19.41C46.674,18.857,48.922,17.958,51.5,17.064z"/>
	<path fill="#754C24" d="M40.366,28.193c-0.082-0.353-0.223-0.672-0.443-0.941c-1.522-1.854-5.877-0.799-9.726,2.359
		c-2.431,1.994-4.075,4.35-4.575,6.282C31.335,34.84,36.628,32.123,40.366,28.193z"/>
</g>
</svg>
