<?xml version="1.0" encoding="utf-8"?>
<!-- Generator: Adobe Illustrator 16.0.0, SVG Export Plug-In . SVG Version: 6.00 Build 0)  -->
<!DOCTYPE svg PUBLIC "-//W3C//DTD SVG 1.1//EN" "http://www.w3.org/Graphics/SVG/1.1/DTD/svg11.dtd">
<svg version="1.1" id="Layer_1" xmlns="http://www.w3.org/2000/svg" xmlns:xlink="http://www.w3.org/1999/xlink" x="0px" y="0px"
	 width="52px" height="37px" viewBox="0 0 52 37" enable-background="new 0 0 52 37" xml:space="preserve">
<g>
	<path fill="#42210B" d="M52,17.064c-2.848-0.186-3.927-0.456-5.89-0.598c2.503-1.447,3.479-1.865,5.663-3.373
		c-3.648-0.096-6.316-0.146-6.416-0.512C43.983,7.525,39.27,3.45,34.336,3.942c0.397-0.162,3.873-6.177-1.16-3.036
		c-3.957,2.532-6.269,7.63-8.138,12.58c-1.468-1.426-2.772-2.548-3.939-3.173c-3.275-1.755-7.193-3.591-13.341-5.875
		c-0.189,2.035,1.006,4.745,4.445,6.544c-0.745-0.101-2.107,0.125-3.195,0.383C9.45,13.7,10.9,15.622,14.829,16.55
		c-1.795,0.118-2.724,0.53-3.564,1.409c0.817,1.623,2.815,3.533,6.402,3.14c-3.992,1.724-1.628,4.912,1.619,4.437
		C13.749,31.264,5.015,30.838,0,26.051c13.092,17.859,41.555,10.561,45.795-6.642C47.174,18.857,49.422,17.958,52,17.064z"/>
	<g>
		<defs>
			<path id="SVGID_1_" d="M52,17.064c-2.848-0.186-3.927-0.456-5.89-0.598c2.503-1.447,3.479-1.865,5.663-3.373
				c-3.648-0.096-6.316-0.146-6.416-0.512C43.983,7.525,39.27,3.45,34.336,3.942c0.397-0.162,3.873-6.177-1.16-3.036
				c-3.957,2.532-6.269,7.63-8.138,12.58c-1.468-1.426-2.772-2.548-3.939-3.173c-3.275-1.755-7.193-3.591-13.341-5.875
				c-0.189,2.035,1.006,4.745,4.445,6.544c-0.745-0.101-2.107,0.125-3.195,0.383C9.45,13.7,10.9,15.622,14.829,16.55
				c-1.795,0.118-2.724,0.53-3.564,1.409c0.817,1.623,2.815,3.533,6.402,3.14c-3.992,1.724-1.628,4.912,1.619,4.437
				C13.749,31.264,5.015,30.838,0,26.051c13.092,17.859,41.555,10.561,45.795-6.642C47.174,18.857,49.422,17.958,52,17.064z"/>
		</defs>
		<clipPath id="SVGID_2_">
			<use xlink:href="#SVGID_1_"  overflow="visible"/>
		</clipPath>
		
			<ellipse transform="matrix(0.773 -0.6344 0.6344 0.773 -13.3221 28.7055)" clip-path="url(#SVGID_2_)" fill="#754C24" cx="33.455" cy="32.97" rx="9.014" ry="4.346"/>
	</g>
</g>
<rect fill="none" width="52" height="37"/>
</svg>
