<?xml version="1.0" encoding="utf-8"?>
<!-- Generator: Adobe Illustrator 16.0.0, SVG Export Plug-In . SVG Version: 6.00 Build 0)  -->
<!DOCTYPE svg PUBLIC "-//W3C//DTD SVG 1.1//EN" "http://www.w3.org/Graphics/SVG/1.1/DTD/svg11.dtd">
<svg version="1.1" id="Layer_1" xmlns="http://www.w3.org/2000/svg" xmlns:xlink="http://www.w3.org/1999/xlink" x="0px" y="0px"
	 width="55px" height="55px" viewBox="0 0 55 55" enable-background="new 0 0 55 55" xml:space="preserve">
<g>
	<g>
		<path fill="#80C342" d="M27.5,54C12.888,54,1,42.112,1,27.5S12.888,1,27.5,1S54,12.888,54,27.5S42.112,54,27.5,54z"/>
		<path fill="#779E3F" d="M27.5,2C41.561,2,53,13.439,53,27.5S41.561,53,27.5,53S2,41.561,2,27.5S13.439,2,27.5,2 M27.5,0
			C12.312,0,0,12.312,0,27.5S12.312,55,27.5,55C42.689,55,55,42.688,55,27.5S42.689,0,27.5,0L27.5,0z"/>
	</g>
	<path fill="#FFFFFF" d="M27.5,13l-17,13.592h3.752l1.229-0.982v13.908h24V25.579l1.268,1.014H44.5L27.5,13z M37.48,25.518v12H28.5
		V28h-2v9.518h-9.02v-12h-1.885L27.5,16l11.904,9.518H37.48z"/>
</g>
</svg>
