<?xml version="1.0" encoding="utf-8"?>
<!-- Generator: Adobe Illustrator 16.0.0, SVG Export Plug-In . SVG Version: 6.00 Build 0)  -->
<!DOCTYPE svg PUBLIC "-//W3C//DTD SVG 1.1//EN" "http://www.w3.org/Graphics/SVG/1.1/DTD/svg11.dtd">
<svg version="1.1" id="Layer_1" xmlns="http://www.w3.org/2000/svg" xmlns:xlink="http://www.w3.org/1999/xlink" x="0px" y="0px"
	 width="235px" height="91px" viewBox="0 0 235 91" enable-background="new 0 0 235 91" xml:space="preserve">
<path opacity="0.35" fill="#FFFFFF" d="M174.599,78.697c6.969-1.157,29.766-1.149,24.392-8.126
	c-3.474-4.511-22.847-9.501-36.109-12.467c0.041-0.505,0.078-1.012,0.078-1.526c0-10.446-8.471-18.918-18.916-18.918
	c-4.469,0-8.568,1.56-11.805,4.152c-3.592-3.701-6.061-7.559-5.265-10.736c0.835-3.336-2.825-8.62-8.235-13.163
	C115.364,7.519,105.605,0,94.087,0c-12.72,0-23.292,9.166-25.49,21.25c-2.211-0.919-4.635-1.431-7.179-1.431
	c-10.346,0-18.73,8.391-18.73,18.729c0,2.214,0.404,4.328,1.11,6.301c-4.348,2.096-7.727,4.773-7.862,8.291
	c-0.232,6.068-2.759,4.633-5.947,3.245c-2.92-4.443-7.94-7.383-13.653-7.383C7.313,49.003,0,56.319,0,65.337
	c0,7.487,5.047,13.786,11.921,15.714c0.896,0.493,2.052,0.883,3.543,1.131l35.376,2.503c0,0,16.894,5.631,22.703,5.631
	c5.809,0,161.02,1.456,161.455-3.485C235.434,81.89,167.629,79.854,174.599,78.697z"/>
<rect fill="none" width="235" height="91"/>
</svg>
