<?xml version="1.0" encoding="utf-8"?>
<!-- Generator: Adobe Illustrator 16.0.0, SVG Export Plug-In . SVG Version: 6.00 Build 0)  -->
<!DOCTYPE svg PUBLIC "-//W3C//DTD SVG 1.1//EN" "http://www.w3.org/Graphics/SVG/1.1/DTD/svg11.dtd">
<svg version="1.1" id="Layer_1" xmlns="http://www.w3.org/2000/svg" xmlns:xlink="http://www.w3.org/1999/xlink" x="0px" y="0px"
	 width="227px" height="96px" viewBox="0 0 227 96" enable-background="new 0 0 227 96" xml:space="preserve">
<path opacity="0.25" fill="#FFFFFF" d="M166.206,83.538c7.015-1.16,29.959-1.152,24.551-8.144
	c-2.293-2.964-11.469-6.135-21.277-8.805c-1.879-6.98-8.26-12.131-15.863-12.131c-1.73,0-3.397,0.271-4.963,0.763
	c-3.016-3.54-7.511-5.795-12.537-5.795c-2.676,0-5.193,0.649-7.426,1.778c-5.99-4.889-11.562-10.833-10.418-15.387
	c1.037-4.128-4.828-11.233-12.386-16.239C104.543,8.554,95.115,0,83.671,0C71.308,0,61.287,9.985,61.287,22.286
	c0,0.611,0.031,1.217,0.081,1.816c-1.464-0.427-3.007-0.666-4.607-0.666c-6.256,0-11.692,3.492-14.457,8.623
	c-4.428-3.449-9.998-5.512-16.057-5.512c-14.405,0-26.084,11.629-26.084,25.971c0,6.501,2.405,12.44,6.371,16.996
	C0.778,76.989-4.484,85.28,6.039,87.029l60.795-2.325c0,0-8.187,10.476-2.339,10.476c5.847,0,162.065,1.459,162.503-3.492
	S159.192,84.697,166.206,83.538z"/>
<rect fill="none" width="227" height="96"/>
</svg>
