<?xml version="1.0" encoding="utf-8"?>
<!-- Generator: Adobe Illustrator 16.0.0, SVG Export Plug-In . SVG Version: 6.00 Build 0)  -->
<!DOCTYPE svg PUBLIC "-//W3C//DTD SVG 1.1//EN" "http://www.w3.org/Graphics/SVG/1.1/DTD/svg11.dtd">
<svg version="1.1" id="Layer_1" xmlns="http://www.w3.org/2000/svg" xmlns:xlink="http://www.w3.org/1999/xlink" x="0px" y="0px"
	 width="1200px" height="822px" viewBox="0 0 1200 822" enable-background="new 0 0 1200 822" xml:space="preserve">
<g>
	<g>
		<polygon fill="#603813" points="323.716,447.409 451.185,567.78 824.206,389.712 1007.076,522.688 877.493,615.045 
			327.658,705.249 172.709,624.057 		"/>
		<polygon fill="#754C24" points="472.987,421.734 531.998,332.309 816.934,325.087 843.577,383.078 494.782,578.522 		"/>
		<polygon fill="#42210B" points="1200,241.881 1191.767,364.254 1093.07,494.763 1107.601,533.427 1102.76,580.68 807.275,747.433 
			470.648,821.232 491.808,778.87 858.981,611.393 986.49,529.128 824.206,389.712 816.934,325.087 		"/>
		<polygon fill="#8C6239" points="475.404,282.128 0.976,254.145 23.785,396.826 172.709,624.057 325.226,460.395 356.718,544.153 
			494.782,578.522 535.963,335.829 		"/>
		<polygon fill="#754C24" points="470.889,821.073 497.206,780.423 845.01,617.768 327.658,660.141 322.81,718.748 		"/>
	</g>
	<g>
		<polygon fill="#754C24" points="44.612,168.449 0,209.576 0,241.881 44.612,241.881 		"/>
		<polygon fill="#754C24" points="1155.388,168.449 1200,209.576 1200,241.881 1155.388,241.881 		"/>
		<path fill="#754C24" d="M1200,242.066c0,116.177-268.632,210.342-600,210.342S0,358.243,0,242.066
			C0,125.897,268.632,31.724,600,31.724S1200,125.897,1200,242.066z"/>
	</g>
	<path fill="#779E3F" d="M1200,210.342c0,116.177-268.632,210.342-600,210.342S0,326.52,0,210.342C0,94.173,268.632,0,600,0
		S1200,94.173,1200,210.342z"/>
</g>
<rect fill="none" width="1200" height="822"/>
</svg>
