<?xml version="1.0" encoding="utf-8"?>
<!-- Generator: Adobe Illustrator 16.0.0, SVG Export Plug-In . SVG Version: 6.00 Build 0)  -->
<!DOCTYPE svg PUBLIC "-//W3C//DTD SVG 1.1//EN" "http://www.w3.org/Graphics/SVG/1.1/DTD/svg11.dtd">
<svg version="1.1" id="Layer_1" xmlns="http://www.w3.org/2000/svg" xmlns:xlink="http://www.w3.org/1999/xlink" x="0px" y="0px"
	 width="888px" height="513px" viewBox="0 0 888 513" enable-background="new 0 0 888 513" xml:space="preserve">
<g>
	<g>
		<linearGradient id="SVGID_1_" gradientUnits="userSpaceOnUse" x1="444.0005" y1="467" x2="444.0005" y2="1.0005">
			<stop  offset="0" style="stop-color:#5D5B59"/>
			<stop  offset="1" style="stop-color:#AEADAC"/>
		</linearGradient>
		<path fill="url(#SVGID_1_)" d="M782,1H106c-2.757,0-5,2.243-5,5v456c0,2.757,2.243,5,5,5h676c2.757,0,5-2.243,5-5V6
			C787,3.243,784.757,1,782,1z M764,424H124V24h640V424z"/>
		<path d="M782,2c2.205,0,4,1.795,4,4v456c0,2.205-1.795,4-4,4H106c-2.205,0-4-1.795-4-4V6c0-2.205,1.795-4,4-4H782 M782,0H106
			c-3.301,0-6,2.7-6,6v456c0,3.3,2.699,6,6,6h676c3.3,0,6-2.7,6-6V6C788,2.7,785.3,0,782,0L782,0z"/>
		<path d="M782,4H106c-1.1,0-2,0.9-2,2v456c0,1.1,0.9,2,2,2h676c1.1,0,2-0.9,2-2V6C784,4.9,783.1,4,782,4z M764,424H124V24h640V424z
			"/>
		<path fill="#1E1B18" d="M764,24v400H124V24H764 M765,23h-1H124h-1v1v400v1h1h640h1v-1V24V23L765,23z"/>
		<g>
			<linearGradient id="SVGID_2_" gradientUnits="userSpaceOnUse" x1="444.0005" y1="19" x2="444.0005" y2="11">
				<stop  offset="0" style="stop-color:#AEADAC"/>
				<stop  offset="1" style="stop-color:#35322F"/>
			</linearGradient>
			<circle fill="url(#SVGID_2_)" cx="444" cy="15" r="4"/>
			<path d="M447,14.998c0,1.658-1.346,3.002-3.001,3.002C442.34,18,441,16.656,441,14.998c0-1.654,1.34-2.998,2.999-2.998
				C445.654,12,447,13.344,447,14.998z"/>
		</g>
		<path opacity="0.1" fill="#FFFFFF" d="M308.541,4H106c-1.1,0-2,0.9-2,2v443.82L308.541,4z"/>
	</g>
	<g>
		<polygon fill="#1E1B18" points="884,454 788,444 100,444 4,454 0,460 888,460 		"/>
		<g>
			<path opacity="0.2" fill="#35322F" d="M888,490.009C888,502.698,689.188,513,444.011,513C198.787,513,0,502.698,0,490.009
				C0,477.308,198.787,467,444.011,467C689.188,467,888,477.308,888,490.009z"/>
			<path d="M884,454H594H294H4c-2.2,0-4,1.8-4,4v10c0,10.898,34.842,23,54,23h240h300h240c19.158,0,54-12.102,54-23v-10
				C888,455.8,886.199,454,884,454z"/>
			<g>
				<g>
					<g>
						<linearGradient id="SVGID_3_" gradientUnits="userSpaceOnUse" x1="677" y1="474" x2="677" y2="468">
							<stop  offset="0" style="stop-color:#35322F"/>
							<stop  offset="1" style="stop-color:#1E1B18"/>
						</linearGradient>
						<path fill="url(#SVGID_3_)" d="M845,471c0,1.65-1.35,3-3,3H512c-1.65,0-3-1.35-3-3l0,0c0-1.65,1.35-3,3-3h330
							C843.65,468,845,469.35,845,471L845,471z"/>
					</g>
					<g>
						<path d="M843,471c0,0.55-0.451,1-1,1H512c-0.55,0-1-0.45-1-1l0,0c0-0.55,0.45-1,1-1h330C842.549,470,843,470.45,843,471
							L843,471z"/>
					</g>
				</g>
				<g>
					<g>
						<linearGradient id="SVGID_4_" gradientUnits="userSpaceOnUse" x1="86" y1="478" x2="86" y2="466">
							<stop  offset="0" style="stop-color:#35322F"/>
							<stop  offset="1" style="stop-color:#1E1B18"/>
						</linearGradient>
						<path fill="url(#SVGID_4_)" d="M92,472c0,3.3-2.7,6-6,6l0,0c-3.301,0-6-2.7-6-6l0,0c0-3.3,2.699-6,6-6l0,0
							C89.3,466,92,468.7,92,472L92,472z"/>
					</g>
					<g>
						<path d="M89,472c0,1.65-1.35,3-3,3l0,0c-1.65,0-3-1.35-3-3l0,0c0-1.65,1.35-3,3-3l0,0C87.65,469,89,470.35,89,472L89,472z"/>
					</g>
				</g>
				<g>
					<g>
						<linearGradient id="SVGID_5_" gradientUnits="userSpaceOnUse" x1="66" y1="478" x2="66" y2="466">
							<stop  offset="0" style="stop-color:#35322F"/>
							<stop  offset="1" style="stop-color:#1E1B18"/>
						</linearGradient>
						<path fill="url(#SVGID_5_)" d="M72,472c0,3.3-2.7,6-6,6l0,0c-3.301,0-6-2.7-6-6l0,0c0-3.3,2.699-6,6-6l0,0
							C69.3,466,72,468.7,72,472L72,472z"/>
					</g>
					<g>
						<path d="M69,472c0,1.65-1.35,3-3,3l0,0c-1.65,0-3-1.35-3-3l0,0c0-1.65,1.35-3,3-3l0,0C67.65,469,69,470.35,69,472L69,472z"/>
					</g>
				</g>
			</g>
		</g>
	</g>
</g>
</svg>
