<?xml version="1.0" encoding="utf-8"?>
<!-- Generator: Adobe Illustrator 16.0.0, SVG Export Plug-In . SVG Version: 6.00 Build 0)  -->
<!DOCTYPE svg PUBLIC "-//W3C//DTD SVG 1.1//EN" "http://www.w3.org/Graphics/SVG/1.1/DTD/svg11.dtd">
<svg version="1.1" id="Layer_1" xmlns="http://www.w3.org/2000/svg" xmlns:xlink="http://www.w3.org/1999/xlink" x="0px" y="0px"
	 width="600px" height="489px" viewBox="0 0 600 489" enable-background="new 0 0 600 489" xml:space="preserve">
<g>
	<path opacity="0.2" fill="#35322F" d="M600,462.506C600,477.137,465.668,489,300.006,489C134.316,489,0,477.137,0,462.506
		C0,447.867,134.316,436,300.006,436C465.668,436,600,447.867,600,462.506z"/>
	<linearGradient id="SVGID_1_" gradientUnits="userSpaceOnUse" x1="299.9917" y1="306.9492" x2="299.9917" y2="459">
		<stop  offset="0" style="stop-color:#FFFFFF"/>
		<stop  offset="0.8" style="stop-color:#AEADAC"/>
		<stop  offset="1" style="stop-color:#868482"/>
	</linearGradient>
	<path fill="url(#SVGID_1_)" d="M599.982,306.949H539v53.476H59v-53.476H0.002c0,0-0.43,36.526,13.926,78.935
		c12.521,36.979,22.307,47.634,47.926,60.017C84.332,456.77,123.559,459,165.227,459c34.537,0,236.123,0,269.537,0
		c41.664,0,80.893-2.23,103.369-13.1c25.619-12.383,35.404-23.038,47.926-60.017C600.41,343.476,599.982,306.949,599.982,306.949z"
		/>
	<linearGradient id="SVGID_2_" gradientUnits="userSpaceOnUse" x1="300.0005" y1="408.5518" x2="300.0005" y2="4.882812e-04">
		<stop  offset="0" style="stop-color:#AEADAC"/>
		<stop  offset="0.1652" style="stop-color:#CBCAC9"/>
		<stop  offset="0.3435" style="stop-color:#E2E1E1"/>
		<stop  offset="0.5336" style="stop-color:#F2F2F2"/>
		<stop  offset="0.7414" style="stop-color:#FCFCFC"/>
		<stop  offset="1" style="stop-color:#FFFFFF"/>
	</linearGradient>
	<path fill="url(#SVGID_2_)" d="M599.99,307.961L589.756,94.934c-0.059-25.726-11.723-49.883-32.857-68.041
		C537.006,9.802,510.592,0,484.424,0h-368.85c-26.166,0-52.58,9.802-72.472,26.893C21.967,45.051,10.304,69.208,10.244,94.934
		L0.01,307.961L0,308.152v0.192c0,26.132,10.237,50.766,28.826,69.364c18.59,18.6,40.215,28.843,66.336,30.843h409.676
		c26.119-2,47.744-12.243,66.334-30.843C589.762,359.11,600,334.476,600,308.345v-0.192L599.99,307.961z M539,360.425H59v-320h480
		V360.425z"/>
	<linearGradient id="SVGID_3_" gradientUnits="userSpaceOnUse" x1="300.0005" y1="401.5186" x2="300.0005" y2="4.98">
		<stop  offset="0" style="stop-color:#FFFFFF"/>
		<stop  offset="1" style="stop-color:#AEADAC"/>
	</linearGradient>
	<path fill="url(#SVGID_3_)" d="M584.76,95.037c-0.023-24.294-11.072-47.155-31.117-64.376
		C534.645,14.34,509.416,4.979,484.424,4.979h-368.85c-24.99,0-50.219,9.36-69.217,25.682
		C26.312,47.882,15.265,70.743,15.242,95.037L5.002,308.169l-0.004,0.144c0,51.394,41.793,93.206,93.162,93.206h403.68
		c51.369,0,93.162-41.812,93.162-93.206v-0.072L584.76,95.037z M539,360.425H59v-320h480V360.425z"/>
	<path fill="#FFFFFF" d="M484.424,7.979c49.59,0,97.336,37.509,97.336,87.131l10.242,213.202c0,49.622-40.574,90.206-90.162,90.206
		H98.16c-49.592,0-90.162-40.581-90.162-90.206L18.241,95.11c0-49.622,47.745-87.131,97.333-87.131H484.424 M484.424,1.98h-368.85
		c-25.697,0-51.639,9.624-71.172,26.405c-20.698,17.783-32.116,41.423-32.16,66.578L2.005,308.024l-0.007,0.144v0.145
		c0,25.602,10.029,49.735,28.24,67.954c18.211,18.218,42.334,28.251,67.922,28.251h403.68c25.586,0,49.707-10.033,67.92-28.252
		c18.213-18.22,28.242-42.353,28.242-67.953v-0.145l-0.008-0.144L587.758,94.964c-0.043-25.155-11.461-48.795-32.16-66.578
		C536.064,11.604,510.123,1.98,484.424,1.98L484.424,1.98z"/>
	<linearGradient id="SVGID_4_" gradientUnits="userSpaceOnUse" x1="300.0005" y1="396.4746" x2="300.0005" y2="5.9263">
		<stop  offset="0" style="stop-color:#000000"/>
		<stop  offset="1" style="stop-color:#1E1B18"/>
	</linearGradient>
	<path fill="url(#SVGID_4_)" d="M581.76,93.057c0-49.612-47.746-87.131-97.336-87.131h-368.85
		c-49.588,0-97.333,37.519-97.333,87.131L7.998,306.269c0,49.612,40.57,90.206,90.162,90.206h403.68
		c49.588,0,90.162-40.594,90.162-90.206L581.76,93.057z M539,360.425H59v-320h480V360.425z"/>
	<path opacity="0.1" fill="#FFFFFF" d="M115.574,5.926c-49.588,0-97.333,37.519-97.333,87.131L7.998,306.269
		c0,31.216,16.063,58.856,40.327,75.066L224.941,5.926H115.574z"/>
</g>
</svg>
