<?xml version="1.0" encoding="utf-8"?>
<!-- Generator: Adobe Illustrator 16.0.0, SVG Export Plug-In . SVG Version: 6.00 Build 0)  -->
<!DOCTYPE svg PUBLIC "-//W3C//DTD SVG 1.1//EN" "http://www.w3.org/Graphics/SVG/1.1/DTD/svg11.dtd">
<svg version="1.1" id="Layer_1" xmlns="http://www.w3.org/2000/svg" xmlns:xlink="http://www.w3.org/1999/xlink" x="0px" y="0px"
	 width="361px" height="707px" viewBox="0 0 361 707" enable-background="new 0 0 361 707" xml:space="preserve">
<g>
	<path d="M355.972,0H4.028C1.812,0,0,1.812,0,4.028v672.943C0,679.188,1.812,681,4.028,681h351.943c2.216,0,4.028-1.812,4.028-4.028
		V4.028C360,1.812,358.188,0,355.972,0z M340,562H20V82h320V562z"/>
	<path opacity="0.2" fill="#35322F" d="M361,681.506C361,695.585,280.178,707,180.504,707C80.813,707,0,695.585,0,681.506
		C0,667.418,80.813,656,180.504,656C280.178,656,361,667.418,361,681.506z"/>
	<path d="M332.029,9H27.971C17.51,9,9,17.51,9,27.971v625.059C9,663.49,17.51,672,27.971,672h304.059
		C342.49,672,351,663.49,351,653.029V27.971C351,17.51,342.49,9,332.029,9z M340,562H20V82h320V562z"/>
	<path fill="#35322F" d="M332.029,10C341.938,10,350,18.062,350,27.971v625.059c0,9.909-8.062,17.971-17.971,17.971H27.971
		C18.062,671,10,662.938,10,653.029V27.971C10,18.062,18.062,10,27.971,10H332.029 M332.029,8H27.971C16.986,8,8,16.987,8,27.971
		v625.059C8,664.013,16.986,673,27.971,673h304.059c10.984,0,19.971-8.987,19.971-19.971V27.971C352,16.987,343.014,8,332.029,8
		L332.029,8z"/>
	<g>
		<g>
			<g>
				<linearGradient id="SVGID_1_" gradientUnits="userSpaceOnUse" x1="181" y1="51" x2="181" y2="37">
					<stop  offset="0" style="stop-color:#35322F"/>
					<stop  offset="1" style="stop-color:#000000"/>
				</linearGradient>
				<path fill="url(#SVGID_1_)" d="M224,44c0,3.85-3.15,7-7,7h-72c-3.85,0-7-3.15-7-7l0,0c0-3.85,3.15-7,7-7h72
					C220.85,37,224,40.15,224,44L224,44z"/>
			</g>
			<g>
				<path fill="#1E1B18" d="M222,44c0,2.75-2.25,5-5,5h-72c-2.75,0-5-2.25-5-5l0,0c0-2.75,2.25-5,5-5h72C219.75,39,222,41.25,222,44
					L222,44z"/>
			</g>
		</g>
		<g>
			<linearGradient id="SVGID_2_" gradientUnits="userSpaceOnUse" x1="304" y1="53" x2="304" y2="35">
				<stop  offset="0" style="stop-color:#35322F"/>
				<stop  offset="1" style="stop-color:#000000"/>
			</linearGradient>
			<path fill="url(#SVGID_2_)" d="M313,44c0,4.967-4.028,9-9,9c-4.97,0-9-4.033-9-9c0-4.965,4.031-9,9-9
				C308.972,35,313,39.033,313,44z"/>
			<path d="M311,43.998c0,3.869-3.135,7.002-7.001,7.002c-3.87,0-6.999-3.133-6.999-7.002c0-3.865,3.129-6.998,6.999-6.998
				C307.865,37,311,40.133,311,43.998z"/>
		</g>
	</g>
	<g>
		<g>
			<path fill="#AEADAC" d="M307.656,607.176c-0.875,0.874-0.875,2.306,0,3.182l0,0c0.875,0.874,2.307,0.874,3.182,0l6.997-6.996
				c0.874-0.875,0.874-2.308,0-3.182l0,0c-0.875-0.877-2.308-0.877-3.183,0L307.656,607.176z"/>
		</g>
		<path fill="#AEADAC" d="M322,586.986c-4.97,0-9,4.03-9,9.001c0,4.97,4.03,9,9,9c4.971,0,9-4.03,9-9
			C331,591.017,326.971,586.986,322,586.986z M322,600.987c-2.76,0-5-2.241-5-5c0-2.761,2.24-5.001,5-5.001s5,2.24,5,5.001
			C327,598.746,324.76,600.987,322,600.987z"/>
	</g>
	<g>
		<g>
			<path fill="#AEADAC" d="M42.732,610.965c-0.64,0-1.279-0.244-1.768-0.732l-11.5-11.502l10.959-10.959
				c0.977-0.977,2.559-0.977,3.535,0s0.977,2.559,0,3.535l-7.424,7.424l7.965,7.967c0.977,0.977,0.977,2.56,0,3.535
				C44.012,610.721,43.372,610.965,42.732,610.965z"/>
		</g>
		<g>
			<path fill="#AEADAC" d="M56.633,601.227H35.824c-1.381,0-2.5-1.119-2.5-2.5s1.119-2.5,2.5-2.5h20.809c1.381,0,2.5,1.119,2.5,2.5
				S58.014,601.227,56.633,601.227z"/>
		</g>
	</g>
	<path fill="#AEADAC" d="M196,597.995L181,586l-15,11.995h4.395v11.402h21.176v-11.402H196z M174.807,605.87v-8.742l6.193-4.952
		l6.16,4.926v8.769H174.807z"/>
	<path opacity="0.1" fill="#FFFFFF" d="M261.088,8H27.971C16.986,8,8,16.987,8,27.971v534.646L261.088,8z"/>
</g>
</svg>
