<?xml version="1.0" encoding="utf-8"?>
<!-- Generator: Adobe Illustrator 16.0.0, SVG Export Plug-In . SVG Version: 6.00 Build 0)  -->
<!DOCTYPE svg PUBLIC "-//W3C//DTD SVG 1.1//EN" "http://www.w3.org/Graphics/SVG/1.1/DTD/svg11.dtd">
<svg version="1.1" id="Layer_1" xmlns="http://www.w3.org/2000/svg" xmlns:xlink="http://www.w3.org/1999/xlink" x="0px" y="0px"
	 width="366px" height="721px" viewBox="0 0 366 721" enable-background="new 0 0 366 721" xml:space="preserve">
<g>
	<linearGradient id="SVGID_1_" gradientUnits="userSpaceOnUse" x1="183.0005" y1="692" x2="183.0005" y2="1.0005">
		<stop  offset="0" style="stop-color:#1E1B18"/>
		<stop  offset="1" style="stop-color:#35322F"/>
	</linearGradient>
	<path fill="url(#SVGID_1_)" d="M330,1H36C16.701,1,1,16.701,1,36v621c0,19.299,15.701,35,35,35h294c19.299,0,35-15.701,35-35V36
		C365,16.701,349.299,1,330,1z M343,586H23V106h320V586z"/>
	<path d="M330,2c18.747,0,34,15.252,34,34v621c0,18.748-15.253,34-34,34H36c-18.747,0-34-15.252-34-34V36C2,17.252,17.253,2,36,2
		H330 M330,0H36C16.2,0,0,16.2,0,36v621c0,19.8,16.2,36,36,36h294c19.8,0,36-16.2,36-36V36C366,16.2,349.8,0,330,0L330,0z"/>
	<path opacity="0.2" fill="#35322F" d="M366,695.006C366,709.361,284.058,721,183.004,721C81.933,721,0,709.361,0,695.006
		C0,680.643,81.933,669,183.004,669C284.058,669,366,680.643,366,695.006z"/>
	<path d="M328,6H38C20.399,6,6,20.4,6,38v617c0,17.6,14.399,32,32,32h290c17.601,0,32-14.4,32-32V38C360,20.4,345.601,6,328,6z
		 M343,586H23V106h320V586z"/>
	<g>
		<g>
			<g>
				<linearGradient id="SVGID_2_" gradientUnits="userSpaceOnUse" x1="185" y1="62" x2="185" y2="48">
					<stop  offset="0" style="stop-color:#35322F"/>
					<stop  offset="1" style="stop-color:#000000"/>
				</linearGradient>
				<path fill="url(#SVGID_2_)" d="M228,55c0,3.85-3.15,7-7,7h-72c-3.85,0-7-3.15-7-7l0,0c0-3.85,3.15-7,7-7h72
					C224.85,48,228,51.15,228,55L228,55z"/>
			</g>
			<g>
				<path fill="#1E1B18" d="M226,55c0,2.75-2.25,5-5,5h-72c-2.75,0-5-2.25-5-5l0,0c0-2.75,2.25-5,5-5h72C223.75,50,226,52.25,226,55
					L226,55z"/>
			</g>
		</g>
		<g>
			<linearGradient id="SVGID_3_" gradientUnits="userSpaceOnUse" x1="308" y1="64" x2="308" y2="46">
				<stop  offset="0" style="stop-color:#35322F"/>
				<stop  offset="1" style="stop-color:#000000"/>
			</linearGradient>
			<path fill="url(#SVGID_3_)" d="M317,55c0,4.967-4.028,9-9,9c-4.97,0-9-4.033-9-9c0-4.965,4.031-9,9-9
				C312.972,46,317,50.033,317,55z"/>
			<path d="M315,54.998c0,3.869-3.135,7.002-7.001,7.002c-3.87,0-6.999-3.133-6.999-7.002c0-3.865,3.129-6.998,6.999-6.998
				C311.865,48,315,51.133,315,54.998z"/>
		</g>
	</g>
	<path opacity="0.1" fill="#FFFFFF" d="M276.644,6H38C20.4,6,6,20.4,6,38v565.181L276.644,6z"/>
	<g>
		<path d="M171,666c-8.271,0-15-6.729-15-15v-24c0-8.271,6.729-15,15-15h24c8.271,0,15,6.729,15,15v24c0,8.271-6.729,15-15,15H171z"
			/>
		<path fill="#35322F" d="M195,613c7.72,0,14,6.28,14,14v24c0,7.72-6.28,14-14,14h-24c-7.72,0-14-6.28-14-14v-24
			c0-7.72,6.28-14,14-14H195 M195,611h-24c-8.8,0-16,7.2-16,16v24c0,8.8,7.2,16,16,16h24c8.8,0,16-7.2,16-16v-24
			C211,618.2,203.8,611,195,611L195,611z"/>
	</g>
	<path fill="#1E1B18" d="M343,106v480H23V106H343 M345,104h-2H23h-2v2v480v2h2h320h2v-2V106V104L345,104z"/>
</g>
</svg>
