<?xml version="1.0" encoding="utf-8"?>
<!-- Generator: Adobe Illustrator 16.0.0, SVG Export Plug-In . SVG Version: 6.00 Build 0)  -->
<!DOCTYPE svg PUBLIC "-//W3C//DTD SVG 1.1//EN" "http://www.w3.org/Graphics/SVG/1.1/DTD/svg11.dtd">
<svg version="1.1" id="Layer_1" xmlns="http://www.w3.org/2000/svg" xmlns:xlink="http://www.w3.org/1999/xlink" x="0px" y="0px"
	 width="88px" height="61px" viewBox="-0.5 0 88 61" enable-background="new -0.5 0 88 61" xml:space="preserve">
<rect x="-0.5" fill="none" width="88" height="61"/>
<g>
	<path opacity="0.2" fill="#35322F" d="M66.86,43.84c0.278-0.52,0.431-1.055,0.431-1.603c0-4.758-11.003-8.614-24.574-8.614
		c-13.569,0-24.573,3.856-24.573,8.614c0,2.202,2.359,4.21,6.236,5.732c-8.387,0.432-14.833,2.956-14.833,6.017
		c0,3.363,7.777,6.088,17.368,6.088c6.549,0,12.248-1.271,15.207-3.148c4.351,2.42,12.039,4.03,20.804,4.03
		c13.571,0,24.574-3.855,24.574-8.614C87.5,48.054,78.561,44.5,66.86,43.84z"/>
	<g>
		<ellipse fill="#AEADAC" cx="33.767" cy="19.205" rx="24.44" ry="19.207"/>
		<path fill="#868482" d="M34.534,0.016C40.33,1.723,48.16,5.788,48.16,15.256c0,15.356-10.756,21.021-16.387,23.087
			c0.658,0.042,1.321,0.069,1.993,0.069c13.498,0,24.44-8.599,24.44-19.207C58.207,8.802,47.676,0.334,34.534,0.016z"/>
	</g>
	<g>
		<path fill="#D7D6D5" d="M77.593,37.76c0,8.125-10.942,14.712-24.439,14.712s-24.44-6.587-24.44-14.712
			c0-8.122,10.943-14.709,24.44-14.709S77.593,29.638,77.593,37.76z"/>
		<path fill="#AEADAC" d="M55.212,52.416c12.533-0.63,22.381-6.949,22.381-14.656c0-8.122-10.942-14.709-24.439-14.709
			c-0.11,0-0.22,0.004-0.329,0.005c6.889,1.293,19.063,4.604,19.063,13.066C71.888,46.571,62.195,50.775,55.212,52.416z"/>
	</g>
	<g>
		<ellipse fill="#D7D6D5" cx="16.841" cy="43.685" rx="17.341" ry="10.438"/>
		<path fill="#AEADAC" d="M17.425,33.265c4.108,0.933,9.629,3.144,9.629,8.273c0,8.335-7.611,11.415-11.61,12.541
			c0.462,0.022,0.926,0.043,1.398,0.043c9.576,0,17.341-4.673,17.341-10.438C34.183,38.038,26.729,33.451,17.425,33.265z"/>
	</g>
</g>
</svg>
