<?xml version="1.0" encoding="utf-8"?>
<!-- Generator: Adobe Illustrator 16.0.0, SVG Export Plug-In . SVG Version: 6.00 Build 0)  -->
<!DOCTYPE svg PUBLIC "-//W3C//DTD SVG 1.1//EN" "http://www.w3.org/Graphics/SVG/1.1/DTD/svg11.dtd">
<svg version="1.1" id="Layer_1" xmlns="http://www.w3.org/2000/svg" xmlns:xlink="http://www.w3.org/1999/xlink" x="0px" y="0px"
	 width="708px" height="565px" viewBox="0 0 708 565" enable-background="new 0 0 708 565" xml:space="preserve">
<g>
	<path opacity="0.2" fill="#35322F" d="M708,535.009C708,551.569,549.488,565,354.008,565C158.492,565,0,551.569,0,535.009
		C0,518.437,158.492,505,354.008,505C549.488,505,708,518.437,708,535.009z"/>
	<g>
		<path fill="#35322F" d="M550,533.005c0,9.169-87.764,16.605-195.996,16.605C245.753,549.61,158,542.174,158,533.005
			c0-9.176,87.753-20.615,196.004-20.615C462.236,512.39,550,523.829,550,533.005z"/>
		<rect x="158" y="528.921" fill="#35322F" width="2.488" height="4.162"/>
		<rect x="548" y="528.921" fill="#35322F" width="2" height="4.162"/>
		<path d="M550,529.005c0,9.169-87.764,16.605-195.996,16.605C245.753,545.61,158,538.174,158,529.005
			c0-9.176,87.753-20.615,196.004-20.615C462.236,508.39,550,519.829,550,529.005z"/>
		<rect x="321" y="485" fill="#1E1B18" width="64" height="41"/>
	</g>
	<linearGradient id="SVGID_1_" gradientUnits="userSpaceOnUse" x1="354.0005" y1="487" x2="354.0005" y2="1.0005">
		<stop  offset="0" style="stop-color:#5D5B59"/>
		<stop  offset="1" style="stop-color:#868482"/>
	</linearGradient>
	<path fill="url(#SVGID_1_)" d="M702,1H6C3.243,1,1,3.243,1,6v476c0,2.757,2.243,5,5,5h696c2.757,0,5-2.243,5-5V6
		C707,3.243,704.757,1,702,1z M674,434H34V34h640V434z"/>
	<path d="M702,2c2.205,0,4,1.795,4,4v476c0,2.205-1.795,4-4,4H6c-2.205,0-4-1.795-4-4V6c0-2.205,1.795-4,4-4H702 M702,0H6
		C2.7,0,0,2.7,0,6v476c0,3.3,2.7,6,6,6h696c3.3,0,6-2.7,6-6V6C708,2.7,705.3,0,702,0L702,0z"/>
	<path d="M702,4H6C4.9,4,4,4.9,4,6v476c0,1.1,0.9,2,2,2h696c1.1,0,2-0.9,2-2V6C704,4.9,703.1,4,702,4z M674,434H34V34h640V434z"/>
	<path fill="#1E1B18" d="M674,34v400H34V34H674 M675,33h-1H34h-1v1v400v1h1h640h1v-1V34V33L675,33z"/>
	<g>
		<linearGradient id="SVGID_2_" gradientUnits="userSpaceOnUse" x1="354.0005" y1="459" x2="354.0005" y2="451">
			<stop  offset="0" style="stop-color:#5D5B59"/>
			<stop  offset="1" style="stop-color:#1E1B18"/>
		</linearGradient>
		<circle fill="url(#SVGID_2_)" cx="354" cy="455" r="4"/>
		<path fill="#1E1B18" d="M357,454.998c0,1.658-1.346,3.002-3.001,3.002c-1.659,0-2.999-1.344-2.999-3.002
			c0-1.654,1.34-2.998,2.999-2.998C355.654,452,357,453.344,357,454.998z"/>
	</g>
	<path opacity="0.1" fill="#FFFFFF" d="M6,4C4.9,4,4,4.9,4,6v476c0,1.1,0.9,2,2,2h60.761L288.538,4H6z"/>
	<g>
		<linearGradient id="SVGID_3_" gradientUnits="userSpaceOnUse" x1="354.0005" y1="465" x2="354.0005" y2="461">
			<stop  offset="0" style="stop-color:#5D5B59"/>
			<stop  offset="1" style="stop-color:#000000"/>
		</linearGradient>
		<circle fill="url(#SVGID_3_)" cx="354" cy="463" r="2"/>
		<circle fill="#14AAFF" cx="354" cy="462.999" r="1"/>
	</g>
</g>
</svg>
