<?xml version="1.0" encoding="utf-8"?>
<!-- Generator: Adobe Illustrator 16.0.0, SVG Export Plug-In . SVG Version: 6.00 Build 0)  -->
<!DOCTYPE svg PUBLIC "-//W3C//DTD SVG 1.1//EN" "http://www.w3.org/Graphics/SVG/1.1/DTD/svg11.dtd">
<svg version="1.1" id="Layer_1" xmlns="http://www.w3.org/2000/svg" xmlns:xlink="http://www.w3.org/1999/xlink" x="0px" y="0px"
	 width="109px" height="131px" viewBox="0 0 109 131" enable-background="new 0 0 109 131" xml:space="preserve">
<g>
	<linearGradient id="SVGID_1_" gradientUnits="userSpaceOnUse" x1="54.4956" y1="0" x2="54.4956" y2="130.0981">
		<stop  offset="0" style="stop-color:#00293C"/>
		<stop  offset="1" style="stop-color:#115A79"/>
	</linearGradient>
	<path fill="url(#SVGID_1_)" d="M8.601,0L8.601,0C3.537,0,0,4.133,0,10.049l0,110c0,5.917,3.537,10.049,8.601,10.049
		c1.972,0,3.996-0.628,6.015-1.866l88.95-54.545c3.447-2.114,5.426-5.263,5.426-8.638s-1.979-6.523-5.426-8.638L14.616,1.866
		C12.596,0.628,10.572,0,8.601,0L8.601,0z"/>
	<linearGradient id="SVGID_2_" gradientUnits="userSpaceOnUse" x1="54.4956" y1="0" x2="54.4956" y2="130.0981">
		<stop  offset="0" style="stop-color:#1E1B18"/>
		<stop  offset="0.0238" style="stop-color:#2B2825"/>
		<stop  offset="0.1251" style="stop-color:#5C5A58"/>
		<stop  offset="0.2313" style="stop-color:#888684"/>
		<stop  offset="0.3404" style="stop-color:#ACABAA"/>
		<stop  offset="0.4531" style="stop-color:#CACAC9"/>
		<stop  offset="0.5706" style="stop-color:#E2E1E1"/>
		<stop  offset="0.6949" style="stop-color:#F2F2F2"/>
		<stop  offset="0.8309" style="stop-color:#FCFCFC"/>
		<stop  offset="1" style="stop-color:#FFFFFF"/>
	</linearGradient>
	<path fill="url(#SVGID_2_)" fill-opacity="0.1" d="M8.601,0L8.601,0C3.537,0,0,4.133,0,10.049l0,110
		c0,5.917,3.537,10.049,8.601,10.049c1.972,0,3.996-0.628,6.015-1.866l88.95-54.545c3.447-2.114,5.426-5.263,5.426-8.638
		s-1.979-6.523-5.426-8.638L14.616,1.866C12.596,0.628,10.572,0,8.601,0L8.601,0z"/>
	<path fill="#FFFFFF" d="M101.475,59.821L12.525,5.276C11.112,4.41,9.777,4,8.601,4C5.873,4,4,6.206,4,10.049l0,110
		c0,3.843,1.873,6.049,4.601,6.049c1.176,0,2.512-0.41,3.924-1.276l88.949-54.545C106.164,67.401,106.164,62.696,101.475,59.821z"/>
	<linearGradient id="SVGID_3_" gradientUnits="userSpaceOnUse" x1="54.4907" y1="4" x2="54.4907" y2="126.0356">
		<stop  offset="0" style="stop-color:#AEADAC"/>
		<stop  offset="1" style="stop-color:#E1E0DF"/>
	</linearGradient>
	<path fill="url(#SVGID_3_)" d="M8,10.049C8,8.65,8.366,8.084,8.451,8.016C8.462,8.012,8.512,8,8.601,8
		c0.215,0,0.823,0.066,1.833,0.687l94.392,57.547c0.593-2.268-0.516-4.674-3.352-6.412L12.525,5.276C11.112,4.41,9.777,4,8.601,4
		C5.873,4,4,6.206,4,10.049l0,110c0,3.549,1.607,5.678,4,5.986L8,10.049z"/>
</g>
<rect fill="none" width="109" height="131"/>
</svg>
