<?xml version="1.0" encoding="utf-8"?>
<!-- Generator: Adobe Illustrator 16.0.0, SVG Export Plug-In . SVG Version: 6.00 Build 0)  -->
<!DOCTYPE svg PUBLIC "-//W3C//DTD SVG 1.1//EN" "http://www.w3.org/Graphics/SVG/1.1/DTD/svg11.dtd">
<svg version="1.1" id="Layer_1" xmlns="http://www.w3.org/2000/svg" xmlns:xlink="http://www.w3.org/1999/xlink" x="0px" y="0px"
	 width="59px" height="45px" viewBox="0 0 59 45" enable-background="new 0 0 59 45" xml:space="preserve">
<g>
	<g>
		<path fill="#FFFFFF" d="M0,28.645c0,1.65,1.35,3,3,3h4c1.65,0,4.042,0.858,5.316,1.907l12.368,10.186
			c0.454,0.374,0.878,0.552,1.236,0.552c0.647,0,1.08-0.582,1.08-1.645v-41C27,0.582,26.568,0,25.92,0
			c-0.358,0-0.783,0.178-1.236,0.552L12.316,10.737C11.042,11.786,8.65,12.645,7,12.645H3c-1.65,0-3,1.35-3,3V28.645z"/>
		<linearGradient id="SVGID_1_" gradientUnits="userSpaceOnUse" x1="13.4771" y1="0" x2="13.477" y2="31.4595">
			<stop  offset="0" style="stop-color:#AEADAC"/>
			<stop  offset="1" style="stop-color:#E1E0DF"/>
		</linearGradient>
		<path fill="url(#SVGID_1_)" d="M2,28.645v-13c0-0.542,0.458-1,1-1h4c2.119,0,4.951-1.016,6.587-2.363L26.954,1.229
			C26.85,0.445,26.473,0,25.92,0c-0.358,0-0.783,0.178-1.236,0.552L12.316,10.737C11.042,11.786,8.65,12.645,7,12.645H3
			c-1.65,0-3,1.35-3,3v13c0,1.298,0.84,2.399,2,2.814V28.645z"/>
	</g>
	<g>
		<path fill="#FFFFFF" d="M37.809,8.95c-0.256-0.223-0.572-0.333-0.888-0.333c-0.347,0-0.691,0.132-0.954,0.396l-2.508,2.508
			c-0.267,0.267-0.409,0.634-0.393,1.011c0.016,0.376,0.189,0.73,0.478,0.972c2.564,2.161,4.034,5.311,4.034,8.642
			s-1.47,6.48-4.034,8.642c-0.288,0.241-0.462,0.596-0.478,0.972c-0.017,0.378,0.126,0.745,0.393,1.011l2.508,2.508
			c0.263,0.264,0.607,0.396,0.954,0.396c0.315,0,0.632-0.11,0.888-0.333c3.811-3.333,5.996-8.142,5.996-13.194
			C43.805,17.093,41.619,12.284,37.809,8.95z"/>
		<path fill="#FFFFFF" d="M49.428,0.386c-0.26-0.241-0.588-0.359-0.916-0.359c-0.346,0-0.691,0.132-0.954,0.395l-3.121,3.122
			c-0.261,0.26-0.403,0.615-0.396,0.984c0.009,0.366,0.167,0.716,0.439,0.965c4.676,4.272,7.357,10.343,7.357,16.652
			s-2.682,12.38-7.357,16.652c-0.272,0.249-0.431,0.599-0.439,0.965c-0.008,0.369,0.135,0.724,0.396,0.984l3.122,3.122
			c0.263,0.263,0.607,0.395,0.953,0.395c0.328,0,0.656-0.118,0.916-0.359c6.044-5.599,9.512-13.529,9.512-21.759
			C58.939,13.916,55.472,5.985,49.428,0.386z"/>
	</g>
	<g>
		<linearGradient id="SVGID_2_" gradientUnits="userSpaceOnUse" x1="38.4355" y1="8.6172" x2="38.4355" y2="23.145">
			<stop  offset="0" style="stop-color:#AEADAC"/>
			<stop  offset="1" style="stop-color:#E1E0DF"/>
		</linearGradient>
		<path fill="url(#SVGID_2_)" d="M35.967,11.013c0.263-0.264,0.607-0.396,0.954-0.396c0.315,0,0.632,0.11,0.888,0.333
			c3.557,3.112,5.674,7.514,5.942,12.194c0.019-0.333,0.054-0.664,0.054-1c0-5.052-2.186-9.86-5.996-13.194
			c-0.256-0.223-0.572-0.333-0.888-0.333c-0.347,0-0.691,0.132-0.954,0.396l-2.508,2.508c-0.267,0.267-0.409,0.634-0.393,1.011
			c0.016,0.36,0.178,0.697,0.445,0.938L35.967,11.013z"/>
		<linearGradient id="SVGID_3_" gradientUnits="userSpaceOnUse" x1="35.3223" y1="23.1445" x2="35.3223" y2="32.8203">
			<stop  offset="0" style="stop-color:#AEADAC"/>
			<stop  offset="1" style="stop-color:#E1E0DF"/>
		</linearGradient>
		<path fill="url(#SVGID_3_)" d="M33.512,32.82c0.012-0.011,0.02-0.024,0.032-0.034c2.564-2.161,4.034-5.311,4.034-8.642
			c0-0.336-0.025-0.668-0.055-1c-0.264,2.955-1.674,5.698-3.979,7.642c-0.288,0.241-0.462,0.596-0.478,0.972
			c-0.017,0.378,0.126,0.745,0.393,1.011L33.512,32.82z"/>
	</g>
	<g>
		<linearGradient id="SVGID_4_" gradientUnits="userSpaceOnUse" x1="51.4902" y1="0.0264" x2="51.4902" y2="23.145">
			<stop  offset="0" style="stop-color:#AEADAC"/>
			<stop  offset="1" style="stop-color:#E1E0DF"/>
		</linearGradient>
		<path fill="url(#SVGID_4_)" d="M44.484,5.496l3.073-3.075c0.263-0.263,0.608-0.395,0.954-0.395c0.328,0,0.656,0.118,0.916,0.359
			c5.799,5.372,9.217,12.891,9.484,20.759c0.012-0.333,0.027-0.666,0.027-1c0-8.229-3.468-16.159-9.512-21.759
			c-0.26-0.241-0.588-0.359-0.916-0.359c-0.346,0-0.691,0.132-0.954,0.395l-3.121,3.122c-0.261,0.26-0.403,0.615-0.396,0.984
			c0.009,0.366,0.167,0.716,0.439,0.965C44.481,5.493,44.482,5.494,44.484,5.496z"/>
		<linearGradient id="SVGID_5_" gradientUnits="userSpaceOnUse" x1="47.9395" y1="23.1445" x2="47.9395" y2="40.793">
			<stop  offset="0" style="stop-color:#AEADAC"/>
			<stop  offset="1" style="stop-color:#E1E0DF"/>
		</linearGradient>
		<path fill="url(#SVGID_5_)" d="M44.484,40.793c4.674-4.271,7.354-10.341,7.354-16.648c0-0.334-0.012-0.667-0.026-1
			c-0.268,5.947-2.902,11.606-7.331,15.652c-0.272,0.249-0.431,0.599-0.439,0.965c-0.008,0.369,0.135,0.724,0.396,0.984
			L44.484,40.793z"/>
	</g>
</g>
<rect fill="none" width="59" height="45"/>
</svg>
