<?xml version="1.0" encoding="utf-8"?>
<!-- Generator: Adobe Illustrator 16.0.0, SVG Export Plug-In . SVG Version: 6.00 Build 0)  -->
<!DOCTYPE svg PUBLIC "-//W3C//DTD SVG 1.1//EN" "http://www.w3.org/Graphics/SVG/1.1/DTD/svg11.dtd">
<svg version="1.1" id="Layer_1" xmlns="http://www.w3.org/2000/svg" xmlns:xlink="http://www.w3.org/1999/xlink" x="0px" y="0px"
	 width="108px" height="118px" viewBox="0 0 108 118" enable-background="new 0 0 108 118" xml:space="preserve">
<g>
	<g>
		<linearGradient id="SVGID_1_" gradientUnits="userSpaceOnUse" x1="22.5" y1="0" x2="22.5" y2="118.0005">
			<stop  offset="0" style="stop-color:#052E41"/>
			<stop  offset="1" style="stop-color:#0C5577"/>
		</linearGradient>
		<path fill="url(#SVGID_1_)" d="M35,0H10C4.5,0,0,4.5,0,10v98c0,5.5,4.5,10,10,10h25c5.5,0,10-4.5,10-10V10C45,4.5,40.5,0,35,0
			L35,0z"/>
		<linearGradient id="SVGID_2_" gradientUnits="userSpaceOnUse" x1="22.5" y1="0" x2="22.5" y2="118.0005">
			<stop  offset="0" style="stop-color:#1E1B18"/>
			<stop  offset="0.0238" style="stop-color:#2B2825"/>
			<stop  offset="0.1251" style="stop-color:#5C5A58"/>
			<stop  offset="0.2313" style="stop-color:#888684"/>
			<stop  offset="0.3404" style="stop-color:#ACABAA"/>
			<stop  offset="0.4531" style="stop-color:#CACAC9"/>
			<stop  offset="0.5706" style="stop-color:#E2E1E1"/>
			<stop  offset="0.6949" style="stop-color:#F2F2F2"/>
			<stop  offset="0.8309" style="stop-color:#FCFCFC"/>
			<stop  offset="1" style="stop-color:#FFFFFF"/>
		</linearGradient>
		<path fill="url(#SVGID_2_)" fill-opacity="0.1" d="M35,0H10C4.5,0,0,4.5,0,10v98c0,5.5,4.5,10,10,10h25c5.5,0,10-4.5,10-10V10
			C45,4.5,40.5,0,35,0L35,0z"/>
		<path fill="#FFFFFF" d="M41,10c0-3.309-2.691-6-6-6H10c-3.309,0-6,2.691-6,6v98c0,3.309,2.691,6,6,6h25c3.309,0,6-2.691,6-6V10z"
			/>
		<linearGradient id="SVGID_3_" gradientUnits="userSpaceOnUse" x1="22.5" y1="4" x2="22.5" y2="14">
			<stop  offset="0" style="stop-color:#AEADAC"/>
			<stop  offset="1" style="stop-color:#E1E0DF"/>
		</linearGradient>
		<path fill="url(#SVGID_3_)" d="M35,4H10c-3.309,0-6,2.691-6,6v4c0-3.309,2.691-6,6-6h25c3.309,0,6,2.691,6,6v-4
			C41,6.691,38.309,4,35,4z"/>
	</g>
	<g>
		<linearGradient id="SVGID_4_" gradientUnits="userSpaceOnUse" x1="85.5" y1="0" x2="85.5" y2="118.0005">
			<stop  offset="0" style="stop-color:#052E41"/>
			<stop  offset="1" style="stop-color:#0C5577"/>
		</linearGradient>
		<path fill="url(#SVGID_4_)" d="M98,0H73c-5.5,0-10,4.5-10,10v98c0,5.5,4.5,10,10,10h25c5.5,0,10-4.5,10-10V10
			C108,4.5,103.5,0,98,0L98,0z"/>
		<linearGradient id="SVGID_5_" gradientUnits="userSpaceOnUse" x1="85.5" y1="0" x2="85.5" y2="118.0005">
			<stop  offset="0" style="stop-color:#1E1B18"/>
			<stop  offset="0.0238" style="stop-color:#2B2825"/>
			<stop  offset="0.1251" style="stop-color:#5C5A58"/>
			<stop  offset="0.2313" style="stop-color:#888684"/>
			<stop  offset="0.3404" style="stop-color:#ACABAA"/>
			<stop  offset="0.4531" style="stop-color:#CACAC9"/>
			<stop  offset="0.5706" style="stop-color:#E2E1E1"/>
			<stop  offset="0.6949" style="stop-color:#F2F2F2"/>
			<stop  offset="0.8309" style="stop-color:#FCFCFC"/>
			<stop  offset="1" style="stop-color:#FFFFFF"/>
		</linearGradient>
		<path fill="url(#SVGID_5_)" fill-opacity="0.1" d="M98,0H73c-5.5,0-10,4.5-10,10v98c0,5.5,4.5,10,10,10h25c5.5,0,10-4.5,10-10V10
			C108,4.5,103.5,0,98,0L98,0z"/>
		<path fill="#FFFFFF" d="M104,10c0-3.309-2.691-6-6-6H73c-3.309,0-6,2.691-6,6v98c0,3.309,2.691,6,6,6h25c3.309,0,6-2.691,6-6V10z"
			/>
		<linearGradient id="SVGID_6_" gradientUnits="userSpaceOnUse" x1="85.5" y1="4" x2="85.5" y2="14">
			<stop  offset="0" style="stop-color:#AEADAC"/>
			<stop  offset="1" style="stop-color:#E1E0DF"/>
		</linearGradient>
		<path fill="url(#SVGID_6_)" d="M98,4H73c-3.309,0-6,2.691-6,6v4c0-3.309,2.691-6,6-6h25c3.309,0,6,2.691,6,6v-4
			C104,6.691,101.309,4,98,4z"/>
	</g>
</g>
</svg>
