<?xml version="1.0" encoding="utf-8"?>
<!-- Generator: Adobe Illustrator 16.0.0, SVG Export Plug-In . SVG Version: 6.00 Build 0)  -->
<!DOCTYPE svg PUBLIC "-//W3C//DTD SVG 1.1//EN" "http://www.w3.org/Graphics/SVG/1.1/DTD/svg11.dtd">
<svg version="1.1" id="Layer_1" xmlns="http://www.w3.org/2000/svg" xmlns:xlink="http://www.w3.org/1999/xlink" x="0px" y="0px"
	 width="108px" height="108px" viewBox="0 0 108 108" enable-background="new 0 0 108 108" xml:space="preserve">
<g>
	<linearGradient id="SVGID_1_" gradientUnits="userSpaceOnUse" x1="53.9995" y1="0" x2="53.9995" y2="108.0005">
		<stop  offset="0" style="stop-color:#052E41"/>
		<stop  offset="1" style="stop-color:#0C5577"/>
	</linearGradient>
	<path fill="url(#SVGID_1_)" d="M98,0H10C4.5,0,0,4.5,0,10v88c0,5.5,4.5,10,10,10h88c5.5,0,10-4.5,10-10V10C108,4.5,103.5,0,98,0
		L98,0z"/>
	<linearGradient id="SVGID_2_" gradientUnits="userSpaceOnUse" x1="53.9995" y1="0" x2="53.9995" y2="108.0005">
		<stop  offset="0" style="stop-color:#1E1B18"/>
		<stop  offset="0.0238" style="stop-color:#2B2825"/>
		<stop  offset="0.1251" style="stop-color:#5C5A58"/>
		<stop  offset="0.2313" style="stop-color:#888684"/>
		<stop  offset="0.3404" style="stop-color:#ACABAA"/>
		<stop  offset="0.4531" style="stop-color:#CACAC9"/>
		<stop  offset="0.5706" style="stop-color:#E2E1E1"/>
		<stop  offset="0.6949" style="stop-color:#F2F2F2"/>
		<stop  offset="0.8309" style="stop-color:#FCFCFC"/>
		<stop  offset="1" style="stop-color:#FFFFFF"/>
	</linearGradient>
	<path fill="url(#SVGID_2_)" fill-opacity="0.1" d="M98,0H10C4.5,0,0,4.5,0,10v88c0,5.5,4.5,10,10,10h88c5.5,0,10-4.5,10-10V10
		C108,4.5,103.5,0,98,0L98,0z"/>
	<path fill="#FFFFFF" d="M104,10c0-3.309-2.691-6-6-6H10c-3.309,0-6,2.691-6,6v88c0,3.309,2.691,6,6,6h88c3.309,0,6-2.691,6-6V10z"
		/>
	<linearGradient id="SVGID_3_" gradientUnits="userSpaceOnUse" x1="53.9995" y1="4" x2="53.9995" y2="14">
		<stop  offset="0" style="stop-color:#AEADAC"/>
		<stop  offset="1" style="stop-color:#E1E0DF"/>
	</linearGradient>
	<path fill="url(#SVGID_3_)" d="M98,4H10c-3.309,0-6,2.691-6,6v4c0-3.309,2.691-6,6-6h88c3.309,0,6,2.691,6,6v-4
		C104,6.691,101.309,4,98,4z"/>
</g>
</svg>
