<?xml version="1.0" encoding="utf-8"?>
<!-- Generator: Adobe Illustrator 16.0.0, SVG Export Plug-In . SVG Version: 6.00 Build 0)  -->
<!DOCTYPE svg PUBLIC "-//W3C//DTD SVG 1.1//EN" "http://www.w3.org/Graphics/SVG/1.1/DTD/svg11.dtd">
<svg version="1.1" id="Layer_1" xmlns="http://www.w3.org/2000/svg" xmlns:xlink="http://www.w3.org/1999/xlink" x="0px" y="0px"
	 width="150px" height="128px" viewBox="0 0 150 128" enable-background="new 0 0 150 128" xml:space="preserve">
<g>
	<radialGradient id="SVGID_1_" cx="75" cy="63.9399" r="69.6893" gradientUnits="userSpaceOnUse">
		<stop  offset="0" style="stop-color:#C30000"/>
		<stop  offset="1" style="stop-color:#AA0000"/>
	</radialGradient>
	<path fill="url(#SVGID_1_)" d="M150,38.904c0.003-0.119-0.02-0.226-0.02-0.342c0.001-0.135,0.02-0.263,0.02-0.397
		c0-21.077-17.085-38.164-38.163-38.164C94.165,0.001,79.342,12.032,75,28.337C70.658,12.032,55.835,0.001,38.163,0.001
		C17.085,0.001,0,17.088,0,38.165c0,0.135,0.019,0.263,0.02,0.397c0,0.116-0.023,0.223-0.02,0.342
		c0.014,0.506,0.083,1.005,0.113,1.51c0.043,0.731,0.082,1.462,0.164,2.182c4.809,45.215,72.75,84.146,74.654,85.231l0.047,0.052
		c0,0,0.021-0.012,0.022-0.015c0.002,0.003,0.023,0.015,0.023,0.015l0.047-0.052c1.903-1.085,69.845-40.017,74.653-85.231
		c0.082-0.72,0.121-1.45,0.164-2.182C149.917,39.909,149.985,39.41,150,38.904z"/>
	<linearGradient id="SVGID_2_" gradientUnits="userSpaceOnUse" x1="81.165" y1="63.4434" x2="62.085" y2="-7.7644">
		<stop  offset="0" style="stop-color:#FFFFFF;stop-opacity:0.1"/>
		<stop  offset="1" style="stop-color:#FFFFFF;stop-opacity:0.4"/>
	</linearGradient>
	<path fill="url(#SVGID_2_)" d="M79.646,63.85c31.312-8.392,55.896-25.49,65.873-43.616c-6.42-12.034-19.088-20.232-33.682-20.232
		C94.165,0.001,79.342,12.032,75,28.337C70.658,12.032,55.835,0.001,38.163,0.001C17.085,0.001,0,17.088,0,38.165
		c0,0.135,0.019,0.263,0.02,0.397c0,0.116-0.023,0.223-0.02,0.342c0.014,0.506,0.083,1.005,0.113,1.51
		c0.043,0.731,0.082,1.462,0.164,2.182c0.698,6.557,2.753,12.977,5.712,19.173C24.012,70.096,51.222,71.466,79.646,63.85z"/>
</g>
<rect fill="none" width="150" height="128"/>
</svg>
